<svg xmlns="http://www.w3.org/2000/svg" viewBox="0 0 512 512" width="512" height="512">
<rect width="512" height="512" fill="#050505"/>
<circle cx="256" cy="256" r="236" fill="#0a0a0a"/>
<circle cx="256" cy="256" r="226" fill="none" stroke="#d9a441" stroke-width="5"/><circle cx="256" cy="256" r="206" fill="none" stroke="#e5484d" stroke-width="4"/><path d="M256 140 C300 200 336 236 336 292 C336 342 300 372 256 372 C212 372 176 342 176 292 C176 252 200 228 220 206 C222 236 236 252 252 256 C246 214 236 182 256 140 Z" transform="translate(256 250) scale(1.05) translate(-256 -256)" fill="#7f1d1d" stroke="#e5484d" stroke-width="5"/><g transform="translate(256 262) scale(0.62) translate(-256 -265)"><path d="M178 150 L334 150 L334 214 L278 214 L278 380 L234 380 L234 214 L178 214 Z" fill="#b8b8b8"/></g><circle cx="256.0" cy="30.0" r="8" fill="#d9a441"/><circle cx="401.3" cy="82.9" r="8" fill="#d9a441"/><circle cx="478.6" cy="216.8" r="8" fill="#d9a441"/><circle cx="451.7" cy="369.0" r="8" fill="#d9a441"/><circle cx="333.3" cy="468.4" r="8" fill="#d9a441"/><circle cx="178.7" cy="468.4" r="8" fill="#d9a441"/><circle cx="60.3" cy="369.0" r="8" fill="#d9a441"/><circle cx="33.4" cy="216.8" r="8" fill="#d9a441"/><circle cx="110.7" cy="82.9" r="8" fill="#d9a441"/>
</svg>
